<?xml version="1.0" encoding="UTF-8"?>
<svg xmlns="http://www.w3.org/2000/svg" xmlns:xlink="http://www.w3.org/1999/xlink" width="596pt" height="154pt" viewBox="0 0 596 154" version="1.1">
<defs>
<clipPath id="clip1">
  <path d="M 4 4 L 592 4 L 592 150 L 4 150 Z M 4 4 "/>
</clipPath>
<clipPath id="clip2">
  <path d="M 41.757812 149.992188 C 40.238281 149.992188 38.753906 149.976562 37.246094 149.953125 C 34.125 149.921875 31.007812 149.710938 27.925781 149.328125 C 25.054688 148.949219 22.269531 148.246094 19.664062 147.238281 C 17.085938 146.238281 14.734375 144.929688 12.699219 143.359375 C 10.636719 141.804688 8.917969 140.003906 7.609375 138.027344 C 6.292969 136.039062 5.378906 133.902344 4.902344 131.703125 C 4.390625 129.335938 4.113281 126.945312 4.074219 124.546875 C 4.042969 123.742188 4 121.0625 4 121.0625 L 4 32.890625 C 4 32.890625 4.042969 30.25 4.074219 29.476562 C 4.109375 27.082031 4.386719 24.691406 4.898438 22.332031 C 5.375 20.125 6.289062 17.984375 7.609375 15.988281 C 8.910156 14.011719 10.617188 12.210938 12.671875 10.652344 C 14.71875 9.078125 17.082031 7.761719 19.664062 6.75 C 22.261719 5.746094 25.039062 5.042969 27.90625 4.671875 C 31 4.285156 34.125 4.078125 37.261719 4.046875 L 41.757812 4 L 554.214844 4 L 558.769531 4.046875 C 561.875 4.078125 564.972656 4.285156 568.035156 4.667969 C 570.933594 5.046875 573.742188 5.75 576.367188 6.761719 C 581.542969 8.800781 585.753906 12.03125 588.410156 15.996094 C 589.710938 17.980469 590.609375 20.101562 591.078125 22.289062 C 591.597656 24.671875 591.886719 27.078125 591.945312 29.492188 C 591.960938 30.574219 591.960938 31.734375 591.960938 32.890625 C 592 34.320312 592 35.683594 592 37.058594 L 592 116.9375 C 592 118.324219 592 119.679688 591.960938 121.042969 C 591.960938 122.285156 591.960938 123.421875 591.941406 124.589844 C 591.882812 126.960938 591.597656 129.324219 591.089844 131.664062 C 590.625 133.882812 589.714844 136.03125 588.394531 138.039062 C 587.082031 139.996094 585.371094 141.78125 583.332031 143.328125 C 581.292969 144.90625 578.9375 146.226562 576.355469 147.230469 C 573.734375 148.246094 570.929688 148.953125 568.035156 149.328125 C 564.953125 149.714844 561.839844 149.921875 558.714844 149.953125 C 557.253906 149.976562 555.726562 149.992188 554.242188 149.992188 L 548.835938 150 Z M 41.757812 149.992188 "/>
</clipPath>
<clipPath id="clip3">
  <path d="M 554.214844 4 L 558.769531 4.046875 C 561.875 4.078125 564.972656 4.285156 568.035156 4.667969 C 570.933594 5.046875 573.742188 5.75 576.367188 6.761719 C 581.542969 8.800781 585.753906 12.03125 588.410156 15.996094 C 589.710938 17.980469 590.609375 20.101562 591.078125 22.289062 C 591.597656 24.671875 591.886719 27.078125 591.945312 29.492188 C 591.960938 30.574219 591.960938 31.734375 591.960938 32.890625 C 592 34.320312 592 35.683594 592 37.058594 L 592 116.9375 C 592 118.324219 592 119.679688 591.960938 121.042969 C 591.960938 122.285156 591.960938 123.421875 591.941406 124.589844 C 591.882812 126.960938 591.597656 129.324219 591.089844 131.664062 C 590.625 133.882812 589.714844 136.03125 588.394531 138.039062 C 587.082031 139.996094 585.371094 141.78125 583.332031 143.328125 C 581.292969 144.90625 578.9375 146.226562 576.355469 147.230469 C 573.734375 148.246094 570.929688 148.953125 568.035156 149.328125 C 564.953125 149.714844 561.839844 149.921875 558.714844 149.953125 C 557.253906 149.976562 555.726562 149.992188 554.242188 149.992188 L 548.835938 150 L 41.757812 149.992188 C 40.238281 149.992188 38.753906 149.976562 37.246094 149.953125 C 34.125 149.921875 31.007812 149.710938 27.925781 149.328125 C 25.054688 148.949219 22.269531 148.246094 19.664062 147.238281 C 17.085938 146.238281 14.734375 144.929688 12.699219 143.359375 C 10.636719 141.804688 8.917969 140.003906 7.609375 138.027344 C 6.292969 136.039062 5.378906 133.902344 4.902344 131.703125 C 4.390625 129.335938 4.113281 126.945312 4.074219 124.546875 C 4.042969 123.804688 4.007812 121.476562 4 121.109375 L 4 32.84375 C 4.007812 32.480469 4.046875 30.191406 4.074219 29.476562 C 4.109375 27.082031 4.386719 24.691406 4.898438 22.332031 C 5.375 20.125 6.289062 17.984375 7.609375 15.988281 C 8.910156 14.011719 10.617188 12.210938 12.671875 10.652344 C 14.71875 9.078125 17.082031 7.761719 19.664062 6.75 C 22.261719 5.746094 25.039062 5.042969 27.90625 4.671875 C 31 4.285156 34.125 4.078125 37.261719 4.046875 L 41.757812 4 Z M -1 -1 L 597 -1 L 597 155 L -1 155 Z M -1 -1 "/>
</clipPath>
<clipPath id="clip4">
  <path d="M 202 69 L 246 69 L 246 117 L 202 117 Z M 202 69 "/>
</clipPath>
<clipPath id="clip5">
  <path d="M 232.867188 103.835938 L 214.703125 103.835938 L 210.339844 116.726562 L 202.648438 116.726562 L 219.851562 69.03125 L 227.84375 69.03125 L 245.050781 116.726562 L 237.222656 116.726562 Z M 216.582031 97.886719 L 230.980469 97.886719 L 223.882812 76.964844 L 223.683594 76.964844 Z M 216.582031 97.886719 "/>
</clipPath>
<clipPath id="clip6">
  <path d="M 249 81 L 283 81 L 283 129 L 249 129 Z M 249 81 "/>
</clipPath>
<clipPath id="clip7">
  <path d="M 282.207031 99.339844 C 282.207031 110.148438 276.425781 117.089844 267.707031 117.089844 C 263.199219 117.324219 258.953125 114.960938 256.773438 111.007812 L 256.609375 111.007812 L 256.609375 128.230469 L 249.476562 128.230469 L 249.476562 81.953125 L 256.382812 81.953125 L 256.382812 87.738281 L 256.511719 87.738281 C 258.789062 83.804688 263.039062 81.445312 267.574219 81.589844 C 276.394531 81.589844 282.207031 88.566406 282.207031 99.339844 Z M 274.875 99.339844 C 274.875 92.300781 271.238281 87.671875 265.695312 87.671875 C 260.246094 87.671875 256.582031 92.398438 256.582031 99.339844 C 256.582031 106.347656 260.246094 111.039062 265.695312 111.039062 C 271.238281 111.039062 274.875 106.445312 274.875 99.339844 Z M 274.875 99.339844 "/>
</clipPath>
<clipPath id="clip8">
  <path d="M 287 81 L 321 81 L 321 129 L 287 129 Z M 287 81 "/>
</clipPath>
<clipPath id="clip9">
  <path d="M 320.445312 99.339844 C 320.445312 110.148438 314.664062 117.089844 305.945312 117.089844 C 301.4375 117.324219 297.191406 114.960938 295.015625 111.007812 L 294.847656 111.007812 L 294.847656 128.230469 L 287.71875 128.230469 L 287.71875 81.953125 L 294.621094 81.953125 L 294.621094 87.738281 L 294.75 87.738281 C 297.027344 83.804688 301.277344 81.445312 305.8125 81.589844 C 314.632812 81.589844 320.445312 88.566406 320.445312 99.339844 Z M 313.113281 99.339844 C 313.113281 92.300781 309.480469 87.671875 303.933594 87.671875 C 298.484375 87.671875 294.820312 92.398438 294.820312 99.339844 C 294.820312 106.347656 298.484375 111.039062 303.933594 111.039062 C 309.480469 111.039062 313.113281 106.445312 313.113281 99.339844 Z M 313.113281 99.339844 "/>
</clipPath>
<clipPath id="clip10">
  <path d="M 338 68 L 375 68 L 375 118 L 338 118 Z M 338 68 "/>
</clipPath>
<clipPath id="clip11">
  <path d="M 345.71875 103.4375 C 346.246094 108.167969 350.835938 111.273438 357.109375 111.273438 C 363.121094 111.273438 367.445312 108.167969 367.445312 103.902344 C 367.445312 100.199219 364.835938 97.984375 358.660156 96.464844 L 352.484375 94.976562 C 343.734375 92.859375 339.671875 88.765625 339.671875 82.117188 C 339.671875 73.890625 346.839844 68.238281 357.011719 68.238281 C 367.082031 68.238281 373.984375 73.890625 374.21875 82.117188 L 367.019531 82.117188 C 366.585938 77.359375 362.65625 74.484375 356.910156 74.484375 C 351.167969 74.484375 347.234375 77.394531 347.234375 81.625 C 347.234375 84.996094 349.746094 86.980469 355.886719 88.5 L 361.136719 89.789062 C 370.914062 92.101562 374.976562 96.035156 374.976562 103.007812 C 374.976562 111.933594 367.875 117.519531 356.582031 117.519531 C 346.011719 117.519531 338.878906 112.0625 338.417969 103.4375 Z M 345.71875 103.4375 "/>
</clipPath>
<clipPath id="clip12">
  <path d="M 378 73 L 397 73 L 397 117 L 378 117 Z M 378 73 "/>
</clipPath>
<clipPath id="clip13">
  <path d="M 390.367188 73.726562 L 390.367188 81.953125 L 396.976562 81.953125 L 396.976562 87.605469 L 390.367188 87.605469 L 390.367188 106.773438 C 390.367188 109.753906 391.691406 111.140625 394.59375 111.140625 C 395.378906 111.128906 396.164062 111.070312 396.941406 110.976562 L 396.941406 116.59375 C 395.636719 116.839844 394.308594 116.949219 392.980469 116.925781 C 385.945312 116.925781 383.203125 114.28125 383.203125 107.535156 L 383.203125 87.605469 L 378.152344 87.605469 L 378.152344 81.953125 L 383.203125 81.953125 L 383.203125 73.726562 Z M 390.367188 73.726562 "/>
</clipPath>
<clipPath id="clip14">
  <path d="M 400 81 L 434 81 L 434 118 L 400 118 Z M 400 81 "/>
</clipPath>
<clipPath id="clip15">
  <path d="M 400.800781 99.339844 C 400.800781 88.402344 407.238281 81.527344 417.28125 81.527344 C 427.351562 81.527344 433.761719 88.402344 433.761719 99.339844 C 433.761719 110.3125 427.386719 117.15625 417.28125 117.15625 C 407.175781 117.15625 400.800781 110.3125 400.800781 99.339844 Z M 426.496094 99.339844 C 426.496094 91.835938 423.058594 87.40625 417.277344 87.40625 C 411.5 87.40625 408.066406 91.871094 408.066406 99.339844 C 408.066406 106.875 411.5 111.273438 417.277344 111.273438 C 423.058594 111.273438 426.496094 106.875 426.496094 99.339844 Z M 426.496094 99.339844 "/>
</clipPath>
<clipPath id="clip16">
  <path d="M 439 81 L 458 81 L 458 117 L 439 117 Z M 439 81 "/>
</clipPath>
<clipPath id="clip17">
  <path d="M 439.640625 81.953125 L 446.441406 81.953125 L 446.441406 87.871094 L 446.605469 87.871094 C 447.554688 84.0625 451.042969 81.441406 454.964844 81.589844 C 455.785156 81.585938 456.605469 81.675781 457.40625 81.855469 L 457.40625 88.53125 C 456.371094 88.214844 455.289062 88.070312 454.203125 88.101562 C 452.105469 88.015625 450.078125 88.851562 448.648438 90.390625 C 447.21875 91.929688 446.535156 94.015625 446.773438 96.101562 L 446.773438 116.726562 L 439.640625 116.726562 Z M 439.640625 81.953125 "/>
</clipPath>
<clipPath id="clip18">
  <path d="M 458 81 L 491 81 L 491 118 L 458 118 Z M 458 81 "/>
</clipPath>
<clipPath id="clip19">
  <path d="M 490.289062 106.511719 C 489.328125 112.824219 483.1875 117.15625 475.328125 117.15625 C 465.21875 117.15625 458.945312 110.378906 458.945312 99.507812 C 458.945312 88.601562 465.253906 81.527344 475.027344 81.527344 C 484.640625 81.527344 490.683594 88.136719 490.683594 98.679688 L 490.683594 101.125 L 466.144531 101.125 L 466.144531 101.554688 C 465.917969 104.144531 466.808594 106.707031 468.597656 108.589844 C 470.386719 110.472656 472.898438 111.5 475.492188 111.402344 C 478.953125 111.726562 482.214844 109.738281 483.515625 106.511719 Z M 466.179688 96.136719 L 483.550781 96.136719 C 483.679688 93.808594 482.832031 91.535156 481.214844 89.859375 C 479.597656 88.183594 477.355469 87.257812 475.027344 87.308594 C 472.683594 87.296875 470.429688 88.21875 468.765625 89.878906 C 467.105469 91.535156 466.171875 93.789062 466.179688 96.136719 Z M 466.179688 96.136719 "/>
</clipPath>
<clipPath id="clip20">
  <path d="M 207 33 L 227 33 L 227 57 L 207 57 Z M 207 33 "/>
</clipPath>
<clipPath id="clip21">
  <path d="M 215.691406 33.132812 C 218.71875 32.917969 221.683594 34.070312 223.769531 36.277344 C 225.855469 38.480469 226.84375 41.507812 226.464844 44.519531 C 226.464844 51.84375 222.511719 56.050781 215.691406 56.050781 L 207.417969 56.050781 L 207.417969 33.132812 Z M 210.976562 52.808594 L 215.292969 52.808594 C 217.457031 52.9375 219.5625 52.085938 221.027344 50.488281 C 222.492188 48.886719 223.160156 46.714844 222.84375 44.566406 C 223.136719 42.429688 222.460938 40.273438 221 38.6875 C 219.539062 37.101562 217.445312 36.253906 215.292969 36.371094 L 210.976562 36.371094 Z M 210.976562 52.808594 "/>
</clipPath>
<clipPath id="clip22">
  <path d="M 230 38 L 247 38 L 247 57 L 230 57 Z M 230 38 "/>
</clipPath>
<clipPath id="clip23">
  <path d="M 230.480469 47.394531 C 230.183594 44.296875 231.667969 41.296875 234.3125 39.652344 C 236.957031 38.011719 240.300781 38.011719 242.945312 39.652344 C 245.589844 41.296875 247.074219 44.296875 246.777344 47.394531 C 247.082031 50.5 245.597656 53.503906 242.949219 55.148438 C 240.304688 56.796875 236.953125 56.796875 234.308594 55.148438 C 231.664062 53.503906 230.179688 50.5 230.480469 47.394531 Z M 243.269531 47.394531 C 243.269531 43.648438 241.589844 41.453125 238.636719 41.453125 C 235.671875 41.453125 234.003906 43.648438 234.003906 47.394531 C 234.003906 51.175781 235.671875 53.351562 238.636719 53.351562 C 241.589844 53.351562 243.269531 51.160156 243.269531 47.394531 Z M 243.269531 47.394531 "/>
</clipPath>
<clipPath id="clip24">
  <path d="M 249 38 L 274 38 L 274 57 L 249 57 Z M 249 38 "/>
</clipPath>
<clipPath id="clip25">
  <path d="M 268.441406 56.050781 L 264.90625 56.050781 L 261.332031 43.3125 L 261.0625 43.3125 L 257.507812 56.050781 L 254.003906 56.050781 L 249.242188 38.757812 L 252.699219 38.757812 L 255.796875 51.953125 L 256.050781 51.953125 L 259.601562 38.757812 L 262.875 38.757812 L 266.425781 51.953125 L 266.695312 51.953125 L 269.777344 38.757812 L 273.1875 38.757812 Z M 268.441406 56.050781 "/>
</clipPath>
<clipPath id="clip26">
  <path d="M 277 38 L 292 38 L 292 57 L 277 57 Z M 277 38 "/>
</clipPath>
<clipPath id="clip27">
  <path d="M 277.191406 38.757812 L 280.476562 38.757812 L 280.476562 41.503906 L 280.730469 41.503906 C 281.617188 39.480469 283.6875 38.242188 285.886719 38.421875 C 287.589844 38.292969 289.257812 38.949219 290.421875 40.199219 C 291.585938 41.449219 292.117188 43.164062 291.867188 44.855469 L 291.867188 56.050781 L 288.457031 56.050781 L 288.457031 45.710938 C 288.457031 42.933594 287.25 41.550781 284.730469 41.550781 C 283.574219 41.496094 282.453125 41.949219 281.660156 42.792969 C 280.867188 43.636719 280.480469 44.78125 280.601562 45.933594 L 280.601562 56.050781 L 277.191406 56.050781 Z M 277.191406 38.757812 "/>
</clipPath>
<clipPath id="clip28">
  <path d="M 297.300781 32.003906 L 300.710938 32.003906 L 300.710938 56.050781 L 297.300781 56.050781 Z M 297.300781 32.003906 "/>
</clipPath>
<clipPath id="clip29">
  <path d="M 305 38 L 322 38 L 322 57 L 305 57 Z M 305 38 "/>
</clipPath>
<clipPath id="clip30">
  <path d="M 305.453125 47.394531 C 305.15625 44.296875 306.640625 41.296875 309.285156 39.652344 C 311.929688 38.011719 315.273438 38.011719 317.917969 39.652344 C 320.5625 41.296875 322.046875 44.296875 321.753906 47.394531 C 322.054688 50.5 320.570312 53.503906 317.921875 55.148438 C 315.277344 56.796875 311.925781 56.796875 309.28125 55.148438 C 306.636719 53.503906 305.152344 50.5 305.453125 47.394531 Z M 318.242188 47.394531 C 318.242188 43.648438 316.558594 41.453125 313.605469 41.453125 C 310.644531 41.453125 308.976562 43.648438 308.976562 47.394531 C 308.976562 51.175781 310.644531 53.351562 313.605469 53.351562 C 316.558594 53.351562 318.242188 51.160156 318.242188 47.394531 Z M 318.242188 47.394531 "/>
</clipPath>
<clipPath id="clip31">
  <path d="M 325 38 L 340 38 L 340 57 L 325 57 Z M 325 38 "/>
</clipPath>
<clipPath id="clip32">
  <path d="M 325.34375 51.160156 C 325.34375 48.046875 327.660156 46.25 331.769531 45.996094 L 336.449219 45.726562 L 336.449219 44.234375 C 336.449219 42.40625 335.242188 41.375 332.914062 41.375 C 331.007812 41.375 329.691406 42.074219 329.3125 43.296875 L 326.007812 43.296875 C 326.359375 40.328125 329.148438 38.421875 333.070312 38.421875 C 337.402344 38.421875 339.84375 40.582031 339.84375 44.234375 L 339.84375 56.050781 L 336.5625 56.050781 L 336.5625 53.621094 L 336.292969 53.621094 C 335.175781 55.394531 333.195312 56.433594 331.101562 56.335938 C 329.636719 56.488281 328.171875 56.011719 327.074219 55.027344 C 325.976562 54.039062 325.347656 52.636719 325.34375 51.160156 Z M 336.449219 49.683594 L 336.449219 48.234375 L 332.230469 48.507812 C 329.851562 48.664062 328.769531 49.476562 328.769531 51 C 328.769531 52.554688 330.121094 53.460938 331.976562 53.460938 C 333.074219 53.574219 334.171875 53.234375 335.011719 52.519531 C 335.855469 51.808594 336.375 50.785156 336.449219 49.683594 Z M 336.449219 49.683594 "/>
</clipPath>
<clipPath id="clip33">
  <path d="M 344 32 L 361 32 L 361 57 L 344 57 Z M 344 32 "/>
</clipPath>
<clipPath id="clip34">
  <path d="M 344.328125 47.394531 C 344.328125 41.929688 347.132812 38.46875 351.5 38.46875 C 353.703125 38.367188 355.769531 39.550781 356.796875 41.503906 L 357.054688 41.503906 L 357.054688 32.003906 L 360.464844 32.003906 L 360.464844 56.050781 L 357.195312 56.050781 L 357.195312 53.316406 L 356.925781 53.316406 C 355.820312 55.253906 353.726562 56.417969 351.5 56.335938 C 347.105469 56.335938 344.328125 52.875 344.328125 47.394531 Z M 347.851562 47.394531 C 347.851562 51.0625 349.578125 53.269531 352.464844 53.269531 C 355.339844 53.269531 357.117188 51.03125 357.117188 47.410156 C 357.117188 43.804688 355.324219 41.535156 352.464844 41.535156 C 349.597656 41.535156 347.851562 43.757812 347.851562 47.394531 Z M 347.851562 47.394531 "/>
</clipPath>
<clipPath id="clip35">
  <path d="M 374 38 L 391 38 L 391 57 L 374 57 Z M 374 38 "/>
</clipPath>
<clipPath id="clip36">
  <path d="M 374.574219 47.394531 C 374.277344 44.296875 375.761719 41.296875 378.40625 39.652344 C 381.050781 38.011719 384.394531 38.011719 387.039062 39.652344 C 389.683594 41.296875 391.167969 44.296875 390.871094 47.394531 C 391.171875 50.5 389.6875 53.503906 387.042969 55.148438 C 384.398438 56.796875 381.046875 56.796875 378.402344 55.148438 C 375.753906 53.503906 374.269531 50.5 374.574219 47.394531 Z M 387.363281 47.394531 C 387.363281 43.648438 385.679688 41.453125 382.726562 41.453125 C 379.761719 41.453125 378.09375 43.648438 378.09375 47.394531 C 378.09375 51.175781 379.761719 53.351562 382.726562 53.351562 C 385.679688 53.351562 387.363281 51.160156 387.363281 47.394531 Z M 387.363281 47.394531 "/>
</clipPath>
<clipPath id="clip37">
  <path d="M 395 38 L 411 38 L 411 57 L 395 57 Z M 395 38 "/>
</clipPath>
<clipPath id="clip38">
  <path d="M 395.445312 38.757812 L 398.730469 38.757812 L 398.730469 41.503906 L 398.984375 41.503906 C 399.871094 39.480469 401.941406 38.242188 404.140625 38.421875 C 405.84375 38.292969 407.511719 38.949219 408.675781 40.199219 C 409.839844 41.449219 410.371094 43.164062 410.121094 44.855469 L 410.121094 56.050781 L 406.710938 56.050781 L 406.710938 45.710938 C 406.710938 42.933594 405.503906 41.550781 402.984375 41.550781 C 401.828125 41.496094 400.707031 41.949219 399.914062 42.792969 C 399.121094 43.636719 398.734375 44.78125 398.855469 45.933594 L 398.855469 56.050781 L 395.445312 56.050781 Z M 395.445312 38.757812 "/>
</clipPath>
<clipPath id="clip39">
  <path d="M 423 34 L 434 34 L 434 57 L 423 57 Z M 423 34 "/>
</clipPath>
<clipPath id="clip40">
  <path d="M 429.390625 34.449219 L 429.390625 38.835938 L 433.132812 38.835938 L 433.132812 41.710938 L 429.390625 41.710938 L 429.390625 50.601562 C 429.390625 52.414062 430.136719 53.207031 431.835938 53.207031 C 432.269531 53.207031 432.703125 53.179688 433.132812 53.128906 L 433.132812 55.972656 C 432.523438 56.082031 431.902344 56.140625 431.28125 56.144531 C 427.488281 56.144531 425.976562 54.8125 425.976562 51.476562 L 425.976562 41.710938 L 423.234375 41.710938 L 423.234375 38.835938 L 425.976562 38.835938 L 425.976562 34.449219 Z M 429.390625 34.449219 "/>
</clipPath>
<clipPath id="clip41">
  <path d="M 437 32 L 453 32 L 453 57 L 437 57 Z M 437 32 "/>
</clipPath>
<clipPath id="clip42">
  <path d="M 437.792969 32.003906 L 441.171875 32.003906 L 441.171875 41.535156 L 441.441406 41.535156 C 442.371094 39.496094 444.480469 38.257812 446.710938 38.4375 C 448.40625 38.34375 450.050781 39.011719 451.203125 40.261719 C 452.351562 41.507812 452.886719 43.203125 452.664062 44.886719 L 452.664062 56.050781 L 449.25 56.050781 L 449.25 45.726562 C 449.25 42.964844 447.964844 41.566406 445.554688 41.566406 C 444.367188 41.46875 443.199219 41.898438 442.359375 42.746094 C 441.519531 43.589844 441.097656 44.761719 441.203125 45.949219 L 441.203125 56.050781 L 437.792969 56.050781 Z M 437.792969 32.003906 "/>
</clipPath>
<clipPath id="clip43">
  <path d="M 457 38 L 473 38 L 473 57 L 457 57 Z M 457 38 "/>
</clipPath>
<clipPath id="clip44">
  <path d="M 472.546875 51.378906 C 471.589844 54.644531 468.4375 56.75 465.058594 56.382812 C 462.753906 56.445312 460.539062 55.488281 459.003906 53.769531 C 457.464844 52.050781 456.761719 49.742188 457.078125 47.457031 C 456.769531 45.167969 457.472656 42.855469 459 41.121094 C 460.53125 39.386719 462.734375 38.402344 465.042969 38.421875 C 469.851562 38.421875 472.753906 41.710938 472.753906 47.140625 L 472.753906 48.332031 L 460.550781 48.332031 L 460.550781 48.523438 C 460.441406 49.804688 460.882812 51.074219 461.757812 52.019531 C 462.632812 52.960938 463.867188 53.492188 465.152344 53.476562 C 466.820312 53.679688 468.445312 52.847656 469.265625 51.378906 Z M 460.550781 45.808594 L 469.277344 45.808594 C 469.367188 44.632812 468.953125 43.476562 468.144531 42.625 C 467.332031 41.773438 466.199219 41.300781 465.027344 41.328125 C 463.835938 41.3125 462.6875 41.78125 461.84375 42.625 C 461.003906 43.464844 460.535156 44.613281 460.550781 45.808594 Z M 460.550781 45.808594 "/>
</clipPath>
<clipPath id="clip45">
  <path d="M 108 53 L 177 53 L 177 117 L 108 117 Z M 108 53 "/>
</clipPath>
<clipPath id="clip46">
  <path d="M 165.582031 77.570312 C 165.667969 71.054688 169.082031 65.035156 174.625 61.621094 C 171.113281 56.597656 165.4375 53.527344 159.3125 53.335938 C 152.867188 52.660156 146.621094 57.195312 143.335938 57.195312 C 139.988281 57.195312 134.933594 53.402344 129.488281 53.515625 C 122.324219 53.746094 115.808594 57.722656 112.324219 63.992188 C 104.902344 76.851562 110.4375 95.75 117.546875 106.148438 C 121.105469 111.238281 125.261719 116.921875 130.699219 116.722656 C 136.023438 116.5 138.011719 113.324219 144.4375 113.324219 C 150.800781 113.324219 152.667969 116.722656 158.214844 116.59375 C 163.929688 116.5 167.527344 111.480469 170.957031 106.339844 C 173.515625 102.714844 175.480469 98.707031 176.785156 94.464844 C 170.003906 91.59375 165.589844 84.941406 165.582031 77.570312 Z M 165.582031 77.570312 "/>
</clipPath>
<clipPath id="clip47">
  <path d="M 142 33 L 160 33 L 160 53 L 142 53 Z M 142 33 "/>
</clipPath>
<clipPath id="clip48">
  <path d="M 155.101562 46.5 C 158.214844 42.757812 159.75 37.949219 159.378906 33.09375 C 154.621094 33.59375 150.226562 35.867188 147.070312 39.46875 C 143.953125 43.015625 142.375 47.660156 142.679688 52.375 C 147.5 52.425781 152.078125 50.261719 155.101562 46.5 Z M 155.101562 46.5 "/>
</clipPath>
</defs>
<g id="surface1">
<g clip-path="url(#clip1)" clip-rule="nonzero">
<g clip-path="url(#clip2)" clip-rule="nonzero">
<path style=" stroke:none;fill-rule:nonzero;fill:rgb(100%,100%,100%);fill-opacity:1;" d="M 3 3 L 593 3 L 593 151 L 3 151 Z M 3 3 "/>
</g>
</g>
<g clip-path="url(#clip3)" clip-rule="evenodd">
<path style="fill:none;stroke-width:8;stroke-linecap:butt;stroke-linejoin:miter;stroke:rgb(0%,0%,0%);stroke-opacity:1;stroke-miterlimit:5;" d="M 37.757812 145.992188 C 36.238281 145.992188 34.753906 145.976562 33.246094 145.953125 C 30.125 145.921875 27.007812 145.710938 23.925781 145.328125 C 21.054688 144.949219 18.269531 144.246094 15.664062 143.238281 C 13.085938 142.238281 10.734375 140.929688 8.699219 139.359375 C 6.636719 137.804688 4.917969 136.003906 3.609375 134.027344 C 2.292969 132.039062 1.378906 129.902344 0.902344 127.703125 C 0.390625 125.335938 0.113281 122.945312 0.0742188 120.546875 C 0.0429688 119.742188 0 117.0625 0 117.0625 L 0 28.890625 C 0 28.890625 0.0429688 26.25 0.0742188 25.476562 C 0.109375 23.082031 0.386719 20.691406 0.898438 18.332031 C 1.375 16.125 2.289062 13.984375 3.609375 11.988281 C 4.910156 10.011719 6.617188 8.210938 8.671875 6.652344 C 10.71875 5.078125 13.082031 3.761719 15.664062 2.75 C 18.261719 1.746094 21.039062 1.042969 23.90625 0.671875 C 27 0.285156 30.125 0.078125 33.261719 0.046875 L 37.757812 0 L 550.214844 0 L 554.769531 0.046875 C 557.875 0.078125 560.972656 0.285156 564.035156 0.667969 C 566.933594 1.046875 569.742188 1.75 572.367188 2.761719 C 577.542969 4.800781 581.753906 8.03125 584.410156 11.996094 C 585.710938 13.980469 586.609375 16.101562 587.078125 18.289062 C 587.597656 20.671875 587.886719 23.078125 587.945312 25.492188 C 587.960938 26.574219 587.960938 27.734375 587.960938 28.890625 C 588 30.320312 588 31.683594 588 33.058594 L 588 112.9375 C 588 114.324219 588 115.679688 587.960938 117.042969 C 587.960938 118.28125 587.960938 119.421875 587.941406 120.589844 C 587.882812 122.960938 587.597656 125.324219 587.089844 127.664062 C 586.625 129.882812 585.714844 132.03125 584.394531 134.039062 C 583.082031 135.996094 581.371094 137.78125 579.332031 139.328125 C 577.292969 140.90625 574.9375 142.226562 572.355469 143.230469 C 569.734375 144.246094 566.929688 144.953125 564.035156 145.328125 C 560.953125 145.714844 557.839844 145.921875 554.714844 145.953125 C 553.253906 145.976562 551.726562 145.992188 550.242188 145.992188 L 544.835938 146 Z M 37.757812 145.992188 " transform="matrix(1,0,0,1,4,4)"/>
</g>
<g clip-path="url(#clip4)" clip-rule="nonzero">
<g clip-path="url(#clip5)" clip-rule="nonzero">
<path style=" stroke:none;fill-rule:nonzero;fill:rgb(0%,0%,0%);fill-opacity:1;" d="M 201.648438 68.03125 L 246.050781 68.03125 L 246.050781 117.726562 L 201.648438 117.726562 Z M 201.648438 68.03125 "/>
</g>
</g>
<g clip-path="url(#clip6)" clip-rule="nonzero">
<g clip-path="url(#clip7)" clip-rule="nonzero">
<path style=" stroke:none;fill-rule:nonzero;fill:rgb(0%,0%,0%);fill-opacity:1;" d="M 248.476562 80.445312 L 283.207031 80.445312 L 283.207031 129.230469 L 248.476562 129.230469 Z M 248.476562 80.445312 "/>
</g>
</g>
<g clip-path="url(#clip8)" clip-rule="nonzero">
<g clip-path="url(#clip9)" clip-rule="nonzero">
<path style=" stroke:none;fill-rule:nonzero;fill:rgb(0%,0%,0%);fill-opacity:1;" d="M 286.71875 80.445312 L 321.445312 80.445312 L 321.445312 129.230469 L 286.71875 129.230469 Z M 286.71875 80.445312 "/>
</g>
</g>
<g clip-path="url(#clip10)" clip-rule="nonzero">
<g clip-path="url(#clip11)" clip-rule="nonzero">
<path style=" stroke:none;fill-rule:nonzero;fill:rgb(0%,0%,0%);fill-opacity:1;" d="M 337.417969 67.238281 L 375.976562 67.238281 L 375.976562 118.519531 L 337.417969 118.519531 Z M 337.417969 67.238281 "/>
</g>
</g>
<g clip-path="url(#clip12)" clip-rule="nonzero">
<g clip-path="url(#clip13)" clip-rule="nonzero">
<path style=" stroke:none;fill-rule:nonzero;fill:rgb(0%,0%,0%);fill-opacity:1;" d="M 377.152344 72.726562 L 397.976562 72.726562 L 397.976562 117.949219 L 377.152344 117.949219 Z M 377.152344 72.726562 "/>
</g>
</g>
<g clip-path="url(#clip14)" clip-rule="nonzero">
<g clip-path="url(#clip15)" clip-rule="nonzero">
<path style=" stroke:none;fill-rule:nonzero;fill:rgb(0%,0%,0%);fill-opacity:1;" d="M 399.800781 80.527344 L 434.761719 80.527344 L 434.761719 118.15625 L 399.800781 118.15625 Z M 399.800781 80.527344 "/>
</g>
</g>
<g clip-path="url(#clip16)" clip-rule="nonzero">
<g clip-path="url(#clip17)" clip-rule="nonzero">
<path style=" stroke:none;fill-rule:nonzero;fill:rgb(0%,0%,0%);fill-opacity:1;" d="M 438.640625 80.441406 L 458.40625 80.441406 L 458.40625 117.726562 L 438.640625 117.726562 Z M 438.640625 80.441406 "/>
</g>
</g>
<g clip-path="url(#clip18)" clip-rule="nonzero">
<g clip-path="url(#clip19)" clip-rule="nonzero">
<path style=" stroke:none;fill-rule:nonzero;fill:rgb(0%,0%,0%);fill-opacity:1;" d="M 457.945312 80.527344 L 491.683594 80.527344 L 491.683594 118.15625 L 457.945312 118.15625 Z M 457.945312 80.527344 "/>
</g>
</g>
<g clip-path="url(#clip20)" clip-rule="nonzero">
<g clip-path="url(#clip21)" clip-rule="nonzero">
<path style=" stroke:none;fill-rule:nonzero;fill:rgb(0%,0%,0%);fill-opacity:1;" d="M 206.417969 31.917969 L 227.84375 31.917969 L 227.84375 57.050781 L 206.417969 57.050781 Z M 206.417969 31.917969 "/>
</g>
</g>
<g clip-path="url(#clip22)" clip-rule="nonzero">
<g clip-path="url(#clip23)" clip-rule="nonzero">
<path style=" stroke:none;fill-rule:nonzero;fill:rgb(0%,0%,0%);fill-opacity:1;" d="M 229.179688 37.011719 L 248.082031 37.011719 L 248.082031 57.796875 L 229.179688 57.796875 Z M 229.179688 37.011719 "/>
</g>
</g>
<g clip-path="url(#clip24)" clip-rule="nonzero">
<g clip-path="url(#clip25)" clip-rule="nonzero">
<path style=" stroke:none;fill-rule:nonzero;fill:rgb(0%,0%,0%);fill-opacity:1;" d="M 248.242188 37.757812 L 274.1875 37.757812 L 274.1875 57.050781 L 248.242188 57.050781 Z M 248.242188 37.757812 "/>
</g>
</g>
<g clip-path="url(#clip26)" clip-rule="nonzero">
<g clip-path="url(#clip27)" clip-rule="nonzero">
<path style=" stroke:none;fill-rule:nonzero;fill:rgb(0%,0%,0%);fill-opacity:1;" d="M 276.191406 37.242188 L 293.117188 37.242188 L 293.117188 57.050781 L 276.191406 57.050781 Z M 276.191406 37.242188 "/>
</g>
</g>
<g clip-path="url(#clip28)" clip-rule="nonzero">
<path style=" stroke:none;fill-rule:nonzero;fill:rgb(0%,0%,0%);fill-opacity:1;" d="M 296.300781 31.003906 L 301.710938 31.003906 L 301.710938 57.050781 L 296.300781 57.050781 Z M 296.300781 31.003906 "/>
</g>
<g clip-path="url(#clip29)" clip-rule="nonzero">
<g clip-path="url(#clip30)" clip-rule="nonzero">
<path style=" stroke:none;fill-rule:nonzero;fill:rgb(0%,0%,0%);fill-opacity:1;" d="M 304.152344 37.011719 L 323.054688 37.011719 L 323.054688 57.796875 L 304.152344 57.796875 Z M 304.152344 37.011719 "/>
</g>
</g>
<g clip-path="url(#clip31)" clip-rule="nonzero">
<g clip-path="url(#clip32)" clip-rule="nonzero">
<path style=" stroke:none;fill-rule:nonzero;fill:rgb(0%,0%,0%);fill-opacity:1;" d="M 324.34375 37.421875 L 340.84375 37.421875 L 340.84375 57.488281 L 324.34375 57.488281 Z M 324.34375 37.421875 "/>
</g>
</g>
<g clip-path="url(#clip33)" clip-rule="nonzero">
<g clip-path="url(#clip34)" clip-rule="nonzero">
<path style=" stroke:none;fill-rule:nonzero;fill:rgb(0%,0%,0%);fill-opacity:1;" d="M 343.328125 31.003906 L 361.464844 31.003906 L 361.464844 57.417969 L 343.328125 57.417969 Z M 343.328125 31.003906 "/>
</g>
</g>
<g clip-path="url(#clip35)" clip-rule="nonzero">
<g clip-path="url(#clip36)" clip-rule="nonzero">
<path style=" stroke:none;fill-rule:nonzero;fill:rgb(0%,0%,0%);fill-opacity:1;" d="M 373.269531 37.011719 L 392.171875 37.011719 L 392.171875 57.796875 L 373.269531 57.796875 Z M 373.269531 37.011719 "/>
</g>
</g>
<g clip-path="url(#clip37)" clip-rule="nonzero">
<g clip-path="url(#clip38)" clip-rule="nonzero">
<path style=" stroke:none;fill-rule:nonzero;fill:rgb(0%,0%,0%);fill-opacity:1;" d="M 394.445312 37.242188 L 411.371094 37.242188 L 411.371094 57.050781 L 394.445312 57.050781 Z M 394.445312 37.242188 "/>
</g>
</g>
<g clip-path="url(#clip39)" clip-rule="nonzero">
<g clip-path="url(#clip40)" clip-rule="nonzero">
<path style=" stroke:none;fill-rule:nonzero;fill:rgb(0%,0%,0%);fill-opacity:1;" d="M 422.234375 33.449219 L 434.132812 33.449219 L 434.132812 57.144531 L 422.234375 57.144531 Z M 422.234375 33.449219 "/>
</g>
</g>
<g clip-path="url(#clip41)" clip-rule="nonzero">
<g clip-path="url(#clip42)" clip-rule="nonzero">
<path style=" stroke:none;fill-rule:nonzero;fill:rgb(0%,0%,0%);fill-opacity:1;" d="M 436.792969 31.003906 L 453.886719 31.003906 L 453.886719 57.050781 L 436.792969 57.050781 Z M 436.792969 31.003906 "/>
</g>
</g>
<g clip-path="url(#clip43)" clip-rule="nonzero">
<g clip-path="url(#clip44)" clip-rule="nonzero">
<path style=" stroke:none;fill-rule:nonzero;fill:rgb(0%,0%,0%);fill-opacity:1;" d="M 455.761719 37.402344 L 473.753906 37.402344 L 473.753906 57.75 L 455.761719 57.75 Z M 455.761719 37.402344 "/>
</g>
</g>
<g clip-path="url(#clip45)" clip-rule="nonzero">
<g clip-path="url(#clip46)" clip-rule="nonzero">
<path style=" stroke:none;fill-rule:nonzero;fill:rgb(0%,0%,0%);fill-opacity:1;" d="M 103.902344 51.660156 L 177.785156 51.660156 L 177.785156 117.921875 L 103.902344 117.921875 Z M 103.902344 51.660156 "/>
</g>
</g>
<g clip-path="url(#clip47)" clip-rule="nonzero">
<g clip-path="url(#clip48)" clip-rule="nonzero">
<path style=" stroke:none;fill-rule:nonzero;fill:rgb(0%,0%,0%);fill-opacity:1;" d="M 141.375 32.09375 L 160.75 32.09375 L 160.75 53.425781 L 141.375 53.425781 Z M 141.375 32.09375 "/>
</g>
</g>
</g>
</svg>
